<?xml version="1.0" encoding="UTF-8"?>
<svg version="1.1" xmlns="http://www.w3.org/2000/svg" width="100" height="100">
<path d="M0,0 L100,0 L100,100 L0,100 Z M55,18 L55,19 L50,19 L50,20 L49,20 L49,21 L47,21 L47,22 L46,22 L46,23 L45,23 L45,25 L44,25 L44,26 L43,26 L43,28 L42,28 L42,29 L41,29 L41,31 L40,31 L40,34 L39,34 L39,38 L38,38 L38,40 L37,40 L37,41 L36,41 L36,43 L35,43 L35,44 L38,44 L38,43 L41,43 L41,44 L40,44 L40,47 L41,47 L41,54 L42,54 L42,56 L43,56 L43,57 L44,57 L44,58 L45,58 L45,59 L46,59 L46,60 L48,60 L48,61 L49,61 L49,62 L51,62 L51,63 L55,63 L55,64 L57,64 L57,65 L61,65 L61,64 L63,64 L63,63 L65,63 L65,62 L66,62 L66,61 L68,61 L68,60 L69,60 L69,59 L70,59 L70,58 L71,58 L71,57 L72,57 L72,55 L73,55 L73,54 L74,54 L74,53 L75,53 L75,52 L74,52 L74,51 L73,51 L73,49 L74,49 L74,50 L76,50 L76,45 L74,45 L74,47 L71,47 L71,46 L70,46 L70,44 L69,44 L69,43 L68,43 L68,42 L67,42 L67,40 L66,40 L66,39 L65,39 L65,38 L63,38 L63,37 L62,37 L62,36 L60,36 L60,34 L59,34 L59,32 L58,32 L58,33 L57,33 L57,34 L54,34 L54,35 L53,35 L53,36 L51,36 L51,38 L49,38 L49,39 L48,39 L48,40 L45,40 L45,41 L44,41 L44,43 L42,43 L42,42 L43,42 L43,40 L44,40 L44,39 L47,39 L47,38 L48,38 L48,37 L50,37 L50,35 L52,35 L52,34 L53,34 L53,33 L56,33 L56,32 L57,32 L57,31 L58,31 L58,29 L60,29 L60,33 L61,33 L61,35 L63,35 L63,36 L64,36 L64,37 L66,37 L66,38 L67,38 L67,39 L68,39 L68,41 L69,41 L69,42 L70,42 L70,43 L71,43 L71,45 L72,45 L72,46 L73,46 L73,44 L74,44 L74,43 L76,43 L76,44 L77,44 L77,51 L76,51 L76,52 L78,52 L78,49 L79,49 L79,48 L80,48 L80,47 L81,47 L81,43 L83,43 L83,42 L84,42 L84,41 L87,41 L87,39 L88,39 L88,34 L87,34 L87,32 L85,32 L85,31 L84,31 L84,30 L83,30 L83,26 L82,26 L82,25 L81,25 L81,24 L76,24 L76,25 L75,25 L75,24 L74,24 L74,23 L73,23 L73,22 L71,22 L71,21 L70,21 L70,20 L68,20 L68,19 L66,19 L66,18 Z M31,23 L31,25 L30,25 L30,26 L28,26 L28,27 L30,27 L30,28 L31,28 L31,30 L33,30 L33,28 L34,28 L34,27 L36,27 L36,26 L35,26 L35,25 L33,25 L33,23 Z M19,24 L19,29 L18,29 L18,31 L17,31 L17,32 L16,32 L16,33 L15,33 L15,34 L13,34 L13,35 L11,35 L11,36 L14,36 L14,37 L16,37 L16,38 L17,38 L17,39 L18,39 L18,40 L19,40 L19,42 L20,42 L20,46 L21,46 L21,42 L22,42 L22,40 L23,40 L23,38 L24,38 L24,37 L26,37 L26,36 L28,36 L28,35 L30,35 L30,34 L26,34 L26,33 L24,33 L24,32 L23,32 L23,31 L22,31 L22,29 L21,29 L21,27 L20,27 L20,24 Z M8,43 L8,45 L7,45 L7,46 L5,46 L5,47 L7,47 L7,48 L8,48 L8,50 L10,50 L10,48 L11,48 L11,47 L13,47 L13,46 L12,46 L12,45 L10,45 L10,43 Z M24,53 L24,55 L25,55 L25,58 L24,58 L24,56 L22,56 L22,58 L23,58 L23,60 L24,60 L24,62 L23,62 L23,61 L21,61 L21,62 L22,62 L22,64 L23,64 L23,65 L24,65 L24,66 L25,66 L25,67 L26,67 L26,68 L27,68 L27,69 L28,69 L28,78 L29,78 L29,82 L30,82 L30,85 L31,85 L31,89 L35,89 L35,88 L38,88 L38,87 L39,87 L39,85 L38,85 L38,84 L37,84 L37,76 L38,76 L38,75 L40,75 L40,74 L41,74 L41,73 L42,73 L42,72 L45,72 L45,71 L49,71 L49,70 L54,70 L54,69 L46,69 L46,70 L43,70 L43,71 L41,71 L41,72 L39,72 L39,73 L38,73 L38,74 L37,74 L37,75 L36,75 L36,76 L35,76 L35,73 L34,73 L34,70 L33,70 L33,67 L34,67 L34,61 L35,61 L35,59 L34,59 L34,58 L33,58 L33,60 L32,60 L32,62 L31,62 L31,59 L30,59 L30,57 L29,57 L29,54 L28,54 L28,53 L27,53 L27,56 L26,56 L26,53 Z M64,64 L64,65 L62,65 L62,66 L56,66 L56,65 L55,65 L55,69 L57,69 L57,70 L64,70 L64,69 L66,69 L66,64 Z M67,68 L67,70 L76,70 L76,71 L77,71 L77,72 L79,72 L79,73 L80,73 L80,74 L81,74 L81,76 L82,76 L82,77 L83,77 L83,80 L84,80 L84,86 L85,86 L85,88 L86,88 L86,81 L85,81 L85,77 L84,77 L84,75 L83,75 L83,74 L82,74 L82,73 L81,73 L81,72 L80,72 L80,71 L79,71 L79,70 L78,70 L78,69 L73,69 L73,68 Z " fill="#000000" transform="translate(0,0)"/>
<path d="M0,0 L3,0 L3,1 L2,1 L2,2 L1,2 L1,3 L0,3 L0,4 L-1,4 L-1,6 L-2,6 L-2,8 L-3,8 L-3,9 L-4,9 L-4,6 L-3,6 L-3,4 L-2,4 L-2,3 L-1,3 L-1,2 L0,2 Z " fill="#000000" transform="translate(62,19)"/>
<path d="M0,0 L2,0 L2,1 L3,1 L3,2 L0,2 Z " fill="#000000" transform="translate(66,22)"/>
<path d="M0,0 L2,0 L2,2 L1,2 L1,3 L0,3 L0,4 L-1,4 L-1,5 L-3,5 L-3,6 L-4,6 L-4,7 L-5,7 L-5,8 L-6,8 L-6,9 L-7,9 L-7,11 L-8,11 L-8,12 L-9,12 L-9,13 L-10,13 L-10,11 L-9,11 L-9,9 L-8,9 L-8,8 L-7,8 L-7,6 L-5,6 L-5,4 L-4,4 L-4,3 L-3,3 L-3,2 L-2,2 L-2,1 L0,1 Z " fill="#000000" transform="translate(54,23)"/>
<path d="M0,0 L1,0 L1,1 L3,1 L3,2 L1,2 L1,5 L0,5 L0,3 L-1,3 L-1,1 L0,1 Z " fill="#000000" transform="translate(78,25)"/>
<path d="M0,0 L1,0 L1,1 L0,1 Z " fill="#000000" transform="translate(81,27)"/>
<path d="M0,0 L1,0 L1,1 L2,1 L2,3 L3,3 L3,4 L4,4 L4,5 L5,5 L5,6 L6,6 L6,7 L4,7 L4,6 L3,6 L3,5 L1,5 L1,3 L0,3 Z " fill="#000000" transform="translate(63,28)"/>
<path d="M0,0 L3,0 L3,1 L5,1 L5,3 L7,3 L7,5 L8,5 L8,8 L9,8 L9,10 L7,10 L7,7 L6,7 L6,5 L5,5 L5,4 L4,4 L4,3 L3,3 L3,2 L2,2 L2,1 L0,1 Z " fill="#000000" transform="translate(69,28)"/>
<path d="M0,0 L1,0 L1,2 L4,2 L4,3 L5,3 L5,4 L6,4 L6,7 L7,7 L7,8 L6,8 L6,9 L3,9 L3,10 L2,10 L2,9 L1,9 L1,6 L2,6 L2,8 L5,8 L5,5 L4,5 L4,4 L0,4 L0,2 L-1,2 L-1,1 L0,1 Z " fill="#000000" transform="translate(80,30)"/>
<path d="M0,0 L2,0 L2,1 L3,1 L3,2 L4,2 L4,3 L5,3 L5,5 L4,5 L4,6 L3,6 L3,7 L2,7 L2,9 L1,9 L1,8 L0,8 L0,6 L-1,6 L-1,5 L-3,5 L-3,4 L-2,4 L-2,3 L-1,3 L-1,1 L0,1 Z " fill="#000000" transform="translate(19,31)"/>
<path d="M0,0 L2,0 L2,4 L0,4 Z " fill="#000000" transform="translate(49,41)"/>
<path d="M0,0 L2,0 L2,4 L0,4 Z " fill="#000000" transform="translate(61,42)"/>
<path d="M0,0 L2,0 L2,2 L1,2 L1,4 L-1,4 L-1,5 L-5,5 L-5,4 L-6,4 L-6,3 L-1,3 L-1,2 L0,2 Z " fill="#000000" transform="translate(59,50)"/>
<path d="M0,0 L1,0 L1,2 L0,2 Z " fill="#000000" transform="translate(27,56)"/>
</svg>
